<?xml version="1.0" standalone="no"?>
<!DOCTYPE svg PUBLIC "-//W3C//DTD SVG 20010904//EN"
 "http://www.w3.org/TR/2001/REC-SVG-20010904/DTD/svg10.dtd">
<svg version="1.0" xmlns="http://www.w3.org/2000/svg"
 width="200.000000pt" height="200.000000pt" viewBox="0 0 200.000000 200.000000"
 preserveAspectRatio="xMidYMid meet">
<metadata>
Created by potrace 1.10, written by Peter Selinger 2001-2011
</metadata>
<g transform="translate(0.000000,200.000000) scale(0.100000,-0.100000)"
fill="#ffffff" stroke="none">
<path d="M878 1890 c-206 -33 -371 -115 -512 -256 -118 -119 -198 -259 -238
-422 -30 -120 -30 -302 0 -424 80 -325 324 -571 652 -659 108 -29 317 -32 423
-6 331 82 580 327 668 657 32 120 32 319 0 440 -83 317 -343 576 -651 650 -99
23 -260 33 -342 20z m334 -33 c26 -7 50 -16 54 -20 4 -4 14 -7 22 -7 22 0 141
-59 207 -102 93 -62 184 -157 253 -263 31 -49 91 -186 106 -245 38 -147 31
-355 -16 -495 -94 -275 -300 -475 -588 -571 -79 -26 -96 -28 -245 -28 -178 0
-230 10 -360 69 -234 106 -384 272 -481 530 -38 101 -54 284 -35 403 12 74 55
211 86 273 72 141 214 289 356 368 66 37 214 90 284 102 68 11 299 2 357 -14z"/>
<path d="M900 1383 c-19 -7 -38 -19 -42 -26 -5 -8 -12 -5 -23 11 -12 16 -26
22 -54 22 -44 0 -55 -11 -101 -98 -26 -49 -38 -62 -53 -60 -24 4 -28 23 -17
73 6 27 4 40 -9 57 -16 19 -29 21 -122 23 -75 2 -93 0 -64 -6 22 -4 60 -8 84
-8 37 -1 42 -3 31 -16 -7 -8 -27 -15 -46 -15 -23 0 -37 -6 -44 -19 -15 -29
-13 -31 25 -31 46 0 44 -14 -4 -30 -33 -11 -40 -18 -46 -47 -4 -22 -14 -37
-28 -43 -16 -6 -18 -9 -5 -9 18 -1 48 24 48 40 0 16 33 46 59 54 23 7 24 6 18
-38 -5 -33 -3 -48 8 -57 8 -7 15 -21 15 -31 0 -10 4 -20 9 -23 4 -3 0 -41 -10
-83 -10 -43 -21 -90 -24 -104 -3 -15 -13 -29 -25 -32 -20 -5 -87 6 -97 17 -3
3 1 31 10 62 16 57 13 79 -18 118 -8 11 -17 17 -20 14 -3 -3 4 -16 15 -31 25
-32 25 -48 0 -120 -11 -31 -20 -60 -20 -64 0 -5 19 -9 43 -11 133 -11 123 -15
132 53 20 156 42 190 96 147 l22 -19 -31 -89 c-17 -49 -32 -100 -34 -114 -2
-20 -9 -26 -35 -28 -19 -2 -33 1 -33 8 0 12 -54 7 -175 -16 -38 -7 -74 -9 -78
-5 -4 4 -2 26 6 47 15 40 26 80 48 169 7 28 16 56 22 63 6 8 6 12 -1 12 -18 0
-25 -20 -59 -155 -41 -159 -38 -165 59 -147 115 20 166 23 187 10 32 -20 68 3
81 51 13 49 26 59 36 29 12 -40 46 -77 78 -85 56 -13 105 -10 109 9 4 14 1 15
-24 6 -87 -30 -174 52 -146 137 29 88 110 140 204 131 42 -5 52 -4 36 3 -30
13 -92 16 -123 6 -14 -4 -42 -19 -63 -32 -22 -14 -40 -23 -42 -21 -1 2 -8 13
-14 26 -11 20 -10 22 16 22 35 0 73 25 73 48 0 13 -3 12 -16 -6 -14 -20 -24
-22 -100 -22 -76 0 -85 2 -82 18 3 17 15 19 141 21 24 1 36 5 32 12 -14 21 4
59 28 58 21 0 21 -1 2 -9 -19 -8 -19 -9 2 -9 12 -1 24 -9 28 -20 3 -11 12 -25
21 -32 12 -10 19 -8 37 9 20 18 24 19 41 6 25 -17 63 -18 95 0 19 11 29 11 44
2 16 -9 23 -6 46 22 34 39 51 41 51 5 0 -22 2 -25 10 -13 5 8 10 28 10 43 0
26 -3 28 -31 25 -26 -2 -33 -9 -43 -38 -6 -20 -19 -36 -29 -38 -16 -3 -18 0
-11 20 4 12 8 39 10 58 1 19 7 48 13 63 6 16 11 34 11 42 0 7 8 16 18 18 14 4
14 5 1 6 -9 0 -22 -6 -29 -14 -12 -14 -15 -14 -30 0 -30 27 -73 34 -110 18z
m-310 -28 c11 -20 11 -33 -2 -79 -16 -53 -16 -54 6 -60 51 -14 62 -8 91 52 50
101 62 113 104 110 l36 -3 0 -109 c0 -78 -4 -110 -12 -113 -8 -3 -17 13 -25
41 -11 42 -15 46 -43 46 -26 0 -34 -6 -48 -35 -16 -34 -31 -43 -41 -26 -6 9
-52 6 -102 -8 -18 -5 -35 -7 -37 -5 -4 4 5 46 38 192 7 29 18 28 35 -3z m406
4 c18 -15 18 -53 -1 -69 -18 -15 -45 2 -45 27 0 13 3 13 15 3 12 -10 15 -10
15 3 0 24 -41 33 -56 12 -16 -22 -10 -36 29 -60 37 -23 46 -58 22 -85 -36 -40
-89 -33 -121 15 -23 36 -7 51 21 20 24 -25 59 -33 70 -15 3 5 -12 20 -33 34
-58 36 -65 95 -14 126 20 12 78 6 98 -11z m-472 -56 c-8 -34 -14 -42 -14 -20
0 10 -7 17 -15 17 -8 0 -15 5 -15 11 0 6 7 9 15 5 8 -3 15 -1 15 4 0 6 5 10
10 10 6 0 8 -11 4 -27z"/>
<path d="M741 1304 c-26 -44 -26 -44 4 -44 23 0 25 4 25 40 0 22 -2 40 -4 40
-2 0 -13 -16 -25 -36z"/>
<path d="M1174 1390 c-12 -5 -26 -23 -33 -40 -12 -35 -36 -36 -35 -1 1 30 -12
13 -20 -25 -7 -29 -5 -32 24 -36 29 -4 31 -2 42 39 8 33 17 47 36 54 32 12 37
6 24 -28 -6 -15 -16 -57 -23 -93 -9 -49 -18 -71 -38 -87 -32 -27 -16 -30 19
-3 23 17 26 17 42 3 15 -13 22 -14 48 -3 23 10 34 10 43 1 19 -19 43 -13 57
15 l14 25 19 -25 c22 -31 47 -33 72 -6 18 19 18 19 46 -1 16 -11 50 -22 77
-26 45 -5 49 -3 67 23 11 17 19 47 19 74 l1 45 -37 0 c-54 0 -56 12 -7 35 l44
20 -38 -4 c-48 -6 -63 -18 -77 -62 -15 -44 -7 -64 25 -64 29 0 45 27 24 40
-17 11 -12 16 29 25 37 8 41 -5 19 -65 -17 -48 -26 -60 -43 -60 -8 0 -13 4 -9
9 3 6 -8 8 -28 4 -68 -11 -100 79 -54 148 28 42 63 61 100 54 17 -3 26 -1 22
5 -9 15 -62 12 -95 -5 -27 -14 -30 -14 -40 5 -17 32 -48 25 -67 -15 -20 -42
-26 -43 -41 -10 -13 28 -26 30 -61 11 -21 -12 -26 -11 -43 6 -13 13 -29 18
-44 15 -14 -2 -27 0 -30 4 -6 11 -22 11 -50 -1z m326 -9 c0 -10 -24 -112 -41
-173 -15 -55 -40 -50 -62 12 -10 28 -22 50 -27 50 -6 0 -13 -17 -16 -39 -9
-56 -17 -66 -44 -51 -15 8 -19 17 -14 28 4 9 14 43 24 76 14 50 39 86 60 86 3
0 14 -30 24 -67 21 -74 25 -72 47 30 9 44 16 57 31 57 10 0 18 -4 18 -9z
m-211 -15 c9 -10 7 -28 -5 -72 -9 -33 -19 -71 -21 -87 -7 -35 -21 -44 -40 -24
-11 11 -12 20 -5 33 5 11 13 46 17 78 4 33 9 65 12 73 7 17 27 17 42 -1z"/>
<path d="M380 1370 c-1 -3 -4 -21 -7 -40 -2 -19 -11 -60 -19 -90 -18 -68 -17
-97 1 -47 19 52 38 153 32 169 -3 7 -6 11 -7 8z"/>
<path d="M1184 1085 c-13 -13 -24 -34 -24 -47 0 -41 -15 -52 -66 -49 -20 1
-21 4 -13 42 15 66 3 70 -16 6 -9 -32 -15 -60 -13 -61 1 -2 25 -6 51 -8 45 -5
49 -4 62 23 8 15 15 39 15 52 0 31 15 43 63 51 42 8 48 -5 23 -52 -8 -15 -18
-40 -22 -57 -4 -16 -8 -32 -9 -35 -1 -3 -7 -31 -15 -63 -12 -50 -18 -60 -47
-74 -46 -22 -57 -9 -39 49 16 54 12 58 -59 58 -43 0 -45 -1 -55 -37 -13 -50
-21 -60 -50 -72 -21 -8 -22 -10 -5 -10 28 -1 38 8 65 57 21 38 28 43 55 40 28
-3 30 -5 30 -47 0 -55 19 -70 63 -52 32 14 53 53 72 135 21 95 41 115 83 83
17 -11 17 -16 1 -82 -9 -39 -17 -86 -18 -105 -1 -31 2 -35 25 -38 37 -4 77 32
85 76 12 71 46 152 63 152 19 0 57 -90 42 -99 -11 -7 17 -44 46 -60 28 -14 80
-14 89 1 9 15 -31 48 -69 55 -31 6 -67 53 -67 89 0 26 34 57 83 78 32 13 43
13 83 1 24 -7 51 -19 59 -25 33 -27 6 -100 -37 -100 -19 0 -48 32 -48 53 0 22
9 22 25 0 11 -15 35 -11 35 6 0 11 -47 31 -73 31 -26 0 -49 -32 -41 -55 4 -9
21 -22 38 -31 78 -37 86 -44 86 -75 0 -41 -40 -76 -96 -85 -36 -5 -51 -2 -89
20 -44 27 -65 62 -49 87 4 8 3 9 -4 5 -7 -4 -12 -16 -12 -27 0 -76 113 -123
205 -85 43 18 59 48 52 103 -3 31 -1 46 8 50 8 2 18 18 24 35 22 61 -31 112
-113 110 -127 -4 -321 -3 -384 2 -68 5 -76 3 -98 -19z m366 -7 c0 -10 -18 -21
-64 -38 -42 -16 -38 -5 -81 -195 -2 -11 -17 -26 -32 -32 -55 -26 -64 -13 -39
54 19 50 39 150 32 162 -3 5 -22 12 -41 15 -24 5 -35 12 -35 25 0 16 12 17
130 17 71 -1 130 -4 130 -8z"/>
<path d="M1030 1091 c-16 -4 -31 -21 -43 -46 -31 -69 -29 -68 -95 -69 -34 -1
-67 -7 -73 -13 -7 -7 5 -8 43 -2 32 5 56 5 62 -1 6 -6 -1 -36 -20 -82 -23 -55
-36 -74 -55 -80 -22 -6 -22 -7 5 -5 24 2 34 11 53 46 l23 44 0 -33 c0 -43 12
-30 34 34 15 46 15 51 -1 68 -16 18 -16 19 4 24 16 4 23 17 28 46 6 33 13 42
41 54 50 21 47 30 -6 15z"/>
<path d="M900 1060 c-14 -5 -44 -14 -68 -20 -53 -14 -77 -37 -93 -90 -16 -53
-4 -74 44 -78 27 -2 39 2 51 20 21 29 20 35 -3 41 -14 3 -18 1 -14 -10 6 -16
-13 -33 -38 -33 -45 0 -26 88 25 120 18 11 44 20 57 20 13 0 35 9 49 20 27 21
27 22 -10 10z"/>
<path d="M650 689 c-12 -23 -19 -44 -16 -47 4 -3 14 13 23 36 9 23 21 42 28
42 6 0 21 -19 33 -42 20 -37 22 -39 16 -13 -6 34 -31 65 -50 65 -8 0 -23 -18
-34 -41z"/>
<path d="M760 704 c-12 -29 -3 -73 15 -80 21 -9 80 31 83 56 8 50 -80 72 -98
24z m81 0 c16 -20 1 -48 -30 -52 -12 -2 -19 -8 -16 -13 4 -5 -1 -9 -9 -9 -12
0 -16 11 -16 45 0 43 1 45 29 45 16 0 34 -7 42 -16z"/>
<path d="M790 685 c0 -10 7 -15 18 -13 21 4 19 22 -2 26 -10 2 -16 -3 -16 -13z"/>
<path d="M887 723 c-14 -24 -16 -70 -4 -87 13 -17 14 -17 53 1 45 21 57 56 27
78 -19 15 -69 20 -76 8z m74 -19 c16 -20 1 -48 -30 -52 -11 -2 -21 -8 -21 -13
0 -5 -4 -9 -10 -9 -5 0 -10 20 -10 45 0 43 1 45 29 45 16 0 34 -7 42 -16z"/>
<path d="M910 685 c0 -8 7 -15 15 -15 8 0 15 7 15 15 0 8 -7 15 -15 15 -8 0
-15 -7 -15 -15z"/>
<path d="M1011 704 c-12 -15 -21 -36 -20 -48 0 -15 6 -8 19 22 11 23 24 42 29
42 9 0 51 -70 51 -85 0 -3 -7 -5 -15 -5 -8 0 -15 5 -15 10 0 6 -9 10 -20 10
-11 0 -20 -4 -20 -9 0 -5 -8 -11 -17 -13 -10 -2 6 -4 36 -3 32 0 56 5 58 12 6
18 -36 93 -51 93 -8 0 -24 -12 -35 -26z"/>
<path d="M1160 721 c31 -5 35 -9 36 -38 0 -36 13 -58 15 -27 4 59 -8 74 -56
73 -29 -2 -29 -2 5 -8z"/>
<path d="M1263 723 c9 -2 25 -2 35 0 9 3 1 5 -18 5 -19 0 -27 -2 -17 -5z"/>
<path d="M1355 718 c-6 -16 -9 -46 -7 -75 2 -20 7 -23 40 -21 36 1 36 1 5 5
-32 4 -33 6 -33 49 0 24 5 44 10 44 6 0 10 -16 10 -35 0 -29 4 -35 22 -35 19
0 20 1 6 13 -9 6 -18 23 -20 36 -3 27 -25 40 -33 19z"/>
<path d="M1232 675 l3 -50 39 -3 c47 -4 55 4 49 46 -4 26 -10 32 -29 32 -13 0
-24 -5 -24 -11 0 -6 9 -8 20 -4 14 5 20 2 20 -10 0 -12 -6 -15 -20 -10 -11 4
-20 2 -20 -4 0 -6 11 -11 25 -11 14 0 25 -4 25 -10 0 -5 -18 -10 -40 -10 -38
0 -39 1 -34 29 3 16 1 37 -5 48 -9 14 -11 8 -9 -32z"/>
<path d="M1110 676 c0 -20 5 -36 10 -36 6 0 10 13 10 29 0 17 -4 33 -10 36 -6
4 -10 -8 -10 -29z"/>
<path d="M1150 684 c0 -17 22 -14 28 4 2 7 -3 12 -12 12 -9 0 -16 -7 -16 -16z"/>
<path d="M658 637 c-14 -11 -9 -13 35 -13 29 0 44 2 35 4 -10 2 -18 8 -18 13
0 13 -32 11 -52 -4z"/>
<path d="M1150 641 c0 -5 -8 -11 -17 -13 -10 -3 1 -4 23 -4 35 1 39 2 25 13
-19 15 -31 16 -31 4z"/>
</g>
</svg>
