<?xml version="1.0" standalone="no"?>
<!DOCTYPE svg PUBLIC "-//W3C//DTD SVG 20010904//EN"
 "http://www.w3.org/TR/2001/REC-SVG-20010904/DTD/svg10.dtd">
<svg version="1.0" xmlns="http://www.w3.org/2000/svg"
 width="600.000000pt" height="600.000000pt" viewBox="0 0 600.000000 600.000000"
 preserveAspectRatio="xMidYMid meet">
<metadata>
Created by potrace 1.10, written by Peter Selinger 2001-2011
</metadata>
<g transform="translate(0.000000,600.000000) scale(0.100000,-0.100000)"
fill="#ffffff" stroke="none">
<path d="M2815 5679 c-33 -5 -105 -12 -160 -17 -55 -4 -110 -14 -122 -20 -12
-7 -42 -12 -68 -12 -25 0 -62 -7 -82 -15 -19 -8 -47 -15 -62 -15 -14 0 -39 -7
-55 -15 -15 -8 -41 -15 -56 -15 -16 0 -35 -7 -44 -15 -8 -8 -27 -15 -41 -15
-15 0 -39 -6 -53 -13 -15 -8 -42 -21 -60 -30 -19 -9 -41 -17 -51 -17 -9 0 -26
-7 -37 -15 -10 -8 -26 -15 -35 -15 -9 0 -22 -7 -29 -15 -7 -8 -21 -15 -31 -15
-9 0 -24 -6 -31 -13 -7 -8 -26 -17 -41 -21 -15 -3 -27 -11 -27 -16 0 -6 -8
-10 -18 -10 -10 0 -23 -5 -29 -11 -11 -11 -36 -26 -78 -49 -61 -32 -293 -195
-320 -224 -6 -6 -46 -42 -89 -81 -100 -87 -124 -111 -211 -211 -38 -43 -75
-83 -81 -89 -15 -13 -134 -172 -134 -179 0 -3 -19 -33 -42 -68 -62 -93 -67
-101 -77 -125 -6 -11 -15 -24 -20 -28 -6 -3 -11 -15 -11 -26 0 -10 -4 -19 -10
-19 -5 0 -13 -12 -16 -27 -4 -15 -13 -34 -21 -41 -7 -7 -13 -21 -13 -30 0 -9
-7 -26 -15 -36 -8 -11 -15 -28 -15 -38 0 -10 -4 -18 -10 -18 -5 0 -12 -12 -16
-27 -6 -27 -24 -72 -51 -125 -7 -14 -13 -38 -13 -53 0 -14 -7 -33 -15 -41 -8
-9 -15 -28 -15 -44 0 -15 -7 -41 -15 -56 -8 -16 -15 -45 -15 -64 -1 -19 -7
-46 -15 -60 -8 -14 -14 -44 -15 -66 0 -23 -7 -58 -15 -77 -8 -20 -15 -67 -15
-104 0 -38 -5 -84 -10 -103 -17 -60 -24 -336 -10 -425 7 -44 15 -123 19 -175
4 -52 12 -105 19 -117 7 -12 12 -40 12 -63 0 -22 7 -57 15 -77 8 -19 15 -50
15 -67 0 -18 7 -41 15 -52 8 -10 15 -33 15 -50 0 -16 7 -39 15 -50 8 -10 15
-30 15 -42 0 -13 6 -36 13 -50 8 -15 21 -42 30 -60 9 -19 17 -44 17 -57 0 -12
7 -28 15 -35 8 -7 15 -19 15 -27 0 -13 11 -37 41 -93 4 -8 20 -37 34 -65 14
-27 34 -63 45 -80 11 -16 24 -39 30 -50 6 -11 19 -33 30 -50 11 -16 23 -37 27
-45 10 -23 133 -187 168 -226 11 -12 34 -39 50 -59 46 -58 213 -225 280 -281
97 -81 279 -215 315 -231 8 -4 21 -13 28 -20 7 -7 20 -13 28 -13 8 0 14 -4 14
-10 0 -5 11 -12 25 -16 14 -3 25 -10 25 -14 0 -4 12 -13 27 -19 16 -6 36 -15
46 -21 45 -26 53 -31 67 -36 8 -3 27 -12 42 -20 14 -8 33 -14 41 -14 8 0 20
-7 27 -15 7 -8 22 -15 34 -15 11 0 30 -7 40 -15 11 -8 29 -15 40 -15 12 0 30
-7 40 -15 11 -8 31 -15 45 -15 14 0 35 -7 45 -15 11 -8 31 -15 45 -15 14 -1
37 -7 51 -15 14 -8 41 -14 61 -15 19 0 40 -5 46 -11 5 -5 37 -13 69 -16 32 -3
68 -10 78 -16 11 -5 60 -13 110 -18 50 -4 125 -13 166 -18 96 -13 303 -13 400
0 41 5 116 13 165 18 50 5 103 13 118 20 16 6 45 11 65 11 20 0 50 7 66 15 15
8 45 15 65 15 21 0 46 7 57 15 10 8 32 15 47 15 16 0 41 6 55 14 36 18 91 37
124 43 15 3 33 11 39 19 6 8 22 14 35 14 12 0 29 7 38 15 8 8 23 15 34 15 11
0 25 7 32 15 7 8 20 15 30 15 10 0 23 7 30 15 7 8 20 15 30 15 10 0 23 7 30
15 7 8 18 15 26 15 7 0 19 6 26 12 7 7 31 22 53 33 22 10 56 32 76 47 20 15
40 28 43 28 6 0 120 82 153 110 7 5 16 10 20 10 5 0 16 8 24 17 9 10 40 38 70
63 67 55 241 228 297 295 22 28 49 60 59 72 10 11 25 31 33 43 8 12 36 51 63
86 26 35 47 66 47 70 0 3 13 23 28 43 15 20 37 54 47 76 11 22 23 42 27 45 4
3 12 17 17 30 11 25 16 35 39 75 7 11 15 27 18 35 3 8 12 27 20 42 8 14 14 31
14 38 0 6 7 18 15 26 8 9 15 25 15 37 0 12 7 31 15 41 8 11 15 29 15 40 0 12
7 30 15 40 8 11 15 31 15 45 0 14 7 35 15 45 8 11 15 32 15 46 0 14 7 35 15
46 8 10 15 35 15 55 0 20 7 53 15 72 8 20 15 53 15 72 0 20 5 46 11 57 7 12
16 67 20 122 5 56 13 128 18 161 13 83 13 316 0 395 -5 36 -14 108 -18 161 -5
53 -14 105 -20 117 -6 11 -11 40 -11 64 -1 24 -7 54 -15 68 -8 14 -14 41 -15
61 0 19 -7 44 -15 55 -8 10 -15 33 -15 50 0 16 -7 39 -15 50 -8 10 -15 31 -15
45 0 14 -7 34 -15 45 -8 10 -15 28 -15 40 0 11 -7 29 -15 40 -8 10 -15 29 -15
40 0 12 -7 27 -15 34 -8 7 -15 21 -15 31 0 9 -7 24 -15 33 -8 8 -15 24 -15 35
0 11 -4 23 -10 26 -5 3 -22 33 -37 65 -15 33 -31 60 -35 60 -4 0 -8 6 -8 14 0
8 -6 21 -14 28 -7 8 -17 24 -20 36 -4 12 -12 22 -17 22 -5 0 -9 5 -9 10 0 12
-41 73 -52 78 -5 2 -8 8 -8 13 0 10 -110 160 -139 190 -9 9 -36 41 -61 70 -60
71 -172 183 -239 239 -29 25 -61 52 -70 61 -31 30 -180 139 -190 139 -6 0 -11
3 -11 8 0 4 -23 21 -51 37 -28 17 -63 38 -78 47 -14 10 -36 22 -48 27 -11 5
-24 15 -28 20 -3 6 -15 11 -26 11 -10 0 -19 4 -19 10 0 5 -12 13 -27 16 -15 4
-34 13 -41 21 -7 7 -22 13 -33 13 -10 0 -19 4 -19 10 0 5 -12 13 -27 16 -16 4
-37 13 -48 20 -11 8 -27 14 -36 14 -10 0 -32 8 -51 17 -18 9 -45 22 -60 30
-14 7 -37 13 -50 13 -12 0 -32 7 -42 15 -11 8 -34 15 -50 15 -17 0 -40 7 -50
15 -11 8 -36 15 -57 15 -20 0 -50 7 -65 15 -16 8 -48 15 -72 15 -24 0 -53 5
-64 11 -12 6 -64 15 -117 20 -53 5 -141 13 -196 18 -116 12 -244 12 -330 0z
m410 -57 c169 -16 273 -31 325 -46 25 -8 79 -22 120 -31 41 -10 93 -26 115
-36 45 -20 140 -55 200 -73 22 -7 74 -29 117 -49 42 -20 81 -37 87 -37 5 0 18
-9 29 -20 10 -11 37 -26 61 -35 23 -8 54 -24 69 -35 15 -12 61 -43 102 -70
128 -84 180 -122 180 -131 0 -5 6 -9 13 -9 10 0 105 -85 227 -204 107 -105
222 -242 253 -301 8 -17 25 -39 37 -50 12 -11 35 -47 50 -81 15 -34 36 -67 47
-75 10 -8 28 -32 40 -54 155 -301 219 -470 277 -730 21 -96 25 -121 41 -270
26 -232 28 -294 11 -495 -22 -264 -53 -419 -129 -645 -46 -141 -140 -351 -187
-420 -11 -16 -20 -38 -20 -47 0 -9 -8 -23 -18 -30 -20 -14 -82 -109 -82 -125
0 -5 -13 -25 -30 -43 -16 -18 -30 -37 -30 -41 0 -4 -18 -29 -40 -54 -22 -25
-40 -51 -40 -56 0 -6 -27 -38 -59 -72 -33 -34 -91 -95 -129 -134 -38 -40 -72
-73 -76 -73 -5 0 -31 -24 -60 -53 -28 -29 -70 -66 -93 -81 -24 -16 -43 -32
-43 -36 0 -3 -12 -13 -27 -21 -16 -8 -47 -29 -71 -46 -24 -18 -49 -33 -56 -33
-7 0 -21 -9 -31 -20 -10 -11 -24 -20 -32 -20 -7 0 -23 -11 -35 -25 -12 -14
-29 -25 -37 -25 -9 0 -29 -9 -46 -20 -73 -50 -364 -180 -401 -180 -8 0 -22 -4
-32 -10 -30 -16 -246 -75 -332 -91 -311 -55 -639 -58 -935 -9 -79 13 -351 79
-375 90 -8 4 -46 18 -85 30 -38 13 -77 28 -85 34 -8 7 -33 18 -55 25 -59 20
-222 100 -235 116 -7 8 -21 15 -31 15 -9 0 -25 7 -34 16 -25 25 -82 63 -119
78 -18 7 -45 25 -61 40 -15 14 -34 26 -41 26 -7 0 -21 10 -31 23 -10 12 -38
35 -62 50 -37 24 -79 64 -234 214 -59 58 -157 167 -157 176 0 5 -16 25 -35 46
-19 20 -54 63 -79 96 -40 55 -58 84 -95 154 -8 14 -23 37 -35 51 -12 14 -41
66 -65 115 -24 50 -52 106 -61 125 -10 19 -37 91 -59 159 -23 69 -46 130 -52
137 -5 6 -21 55 -34 109 -14 53 -27 101 -31 106 -8 13 -21 121 -43 359 -24
246 -14 448 33 715 18 101 65 287 76 300 5 6 23 53 40 105 74 223 241 542 324
619 14 14 26 32 26 41 0 9 14 29 30 44 17 15 35 38 40 51 5 14 15 25 22 25 7
0 27 19 43 42 46 65 185 210 231 240 23 16 57 44 75 63 19 19 39 35 46 35 7 0
17 9 23 20 6 11 25 27 42 36 17 9 45 30 62 46 17 16 56 43 86 60 30 17 78 45
105 63 86 56 275 144 399 186 66 22 125 44 131 49 5 4 48 18 95 29 47 12 103
28 125 36 22 8 59 14 82 15 24 0 62 5 85 10 63 16 318 36 428 34 52 -1 149 -6
215 -12z"/>
<path d="M4362 4170 c-15 -16 -38 -57 -52 -90 -14 -33 -34 -72 -46 -87 l-20
-26 -30 62 c-16 33 -32 61 -35 61 -14 0 -16 -67 -3 -105 8 -22 14 -49 14 -61
0 -11 7 -29 15 -40 8 -10 15 -29 15 -40 0 -12 7 -27 14 -34 8 -6 16 -30 18
-53 2 -29 8 -42 17 -42 18 0 45 117 42 182 0 23 3 44 8 48 6 3 13 26 17 50 3
25 10 48 15 51 5 3 9 22 9 42 1 51 29 82 73 82 20 0 43 -7 51 -16 22 -22 20
-76 -4 -104 -11 -13 -20 -37 -20 -56 0 -18 -4 -35 -9 -39 -5 -3 -13 -36 -17
-73 -4 -37 -13 -76 -19 -87 -7 -11 -16 -40 -20 -65 -26 -184 -53 -240 -115
-240 -32 0 -60 28 -60 61 -1 13 -7 35 -15 49 -8 14 -14 35 -15 48 0 12 -13 41
-30 64 -16 22 -30 49 -30 58 0 23 -26 44 -45 36 -10 -3 -15 -19 -15 -44 0 -21
-4 -42 -9 -48 -5 -5 -14 -40 -19 -79 -19 -128 -24 -140 -59 -143 -24 -2 -32 1
-36 19 -4 16 -11 20 -26 16 -16 -4 -26 3 -42 30 -21 34 -21 35 -3 76 10 23 24
49 31 58 7 8 13 27 13 41 0 14 7 31 15 38 9 8 15 30 15 59 0 25 7 55 15 65 8
11 15 34 15 51 0 49 27 93 76 121 24 14 44 30 44 35 0 5 12 9 26 9 14 0 23 4
19 10 -11 18 -59 11 -100 -15 -22 -13 -47 -25 -56 -25 -9 0 -19 -7 -23 -15 -5
-15 -36 -21 -36 -7 -1 15 -67 79 -102 97 -37 19 -38 19 -88 -2 -27 -12 -52
-17 -56 -12 -10 16 -24 10 -24 -11 0 -11 -9 -37 -20 -57 -11 -21 -20 -43 -20
-49 0 -6 -7 -17 -15 -24 -10 -8 -15 -30 -15 -65 0 -35 -5 -57 -15 -65 -10 -9
-15 -32 -15 -74 -1 -38 -6 -68 -15 -80 -9 -11 -15 -41 -15 -70 0 -67 -27 -126
-57 -126 -13 0 -31 -12 -45 -30 -12 -16 -28 -30 -35 -30 -7 0 -13 -4 -13 -10
0 -24 55 -1 133 57 31 24 61 43 66 43 4 0 16 -9 26 -20 10 -12 34 -30 53 -42
31 -19 38 -20 71 -8 20 7 49 22 64 32 34 24 62 19 119 -22 75 -54 116 -35 169
80 22 49 26 55 39 55 7 0 26 -26 42 -57 36 -72 78 -108 124 -108 36 0 94 34
94 55 0 6 16 28 35 49 l35 38 25 -31 c14 -16 53 -48 86 -70 54 -34 71 -40 142
-46 45 -4 89 -12 98 -18 33 -20 149 32 149 68 0 7 6 18 14 24 8 7 18 27 22 44
3 18 15 49 26 70 31 61 37 217 9 217 -4 0 -11 -29 -15 -65 -3 -35 -13 -77 -21
-92 -27 -54 -45 -101 -45 -119 0 -32 -33 -94 -51 -94 -9 0 -22 -7 -29 -15 -14
-17 -56 -20 -65 -4 -4 5 1 19 10 29 23 25 3 35 -35 15 -43 -22 -109 -22 -155
-1 -51 24 -60 34 -95 102 -26 48 -30 67 -30 134 0 49 5 89 15 107 7 15 24 50
36 77 24 54 88 124 134 147 17 9 45 23 63 32 38 19 112 23 129 6 13 -13 85 -8
90 7 2 7 -9 14 -24 17 -15 4 -51 12 -80 18 -43 11 -60 10 -105 -3 -83 -25
-170 -65 -180 -82 -13 -23 -26 -12 -38 32 -24 91 -113 124 -168 62z m-516 -68
c52 -47 59 -69 34 -107 -11 -16 -20 -40 -20 -53 0 -13 -9 -52 -21 -88 -11 -35
-18 -71 -16 -79 3 -7 -5 -36 -19 -64 -16 -34 -24 -68 -24 -102 0 -53 -13 -89
-32 -89 -6 0 -19 -7 -29 -16 -16 -14 -20 -14 -48 7 -17 13 -31 29 -31 36 0 7
-4 13 -10 13 -5 0 -10 11 -10 25 0 14 4 25 9 25 15 0 39 91 47 175 4 44 12 86
18 94 6 8 14 53 17 102 5 65 12 96 28 123 29 47 55 46 107 -2z"/>
<path d="M3575 4180 c-11 -5 -36 -11 -56 -14 -20 -4 -46 -18 -61 -34 -25 -27
-58 -108 -58 -143 0 -12 -16 -26 -42 -38 l-43 -20 -8 32 c-5 18 -7 53 -4 79 3
42 2 46 -13 38 -15 -8 -46 -84 -42 -102 1 -4 -5 -26 -13 -49 -9 -24 -14 -48
-11 -55 2 -6 34 -14 70 -17 36 -3 75 -11 86 -17 16 -9 22 -6 34 18 16 30 46
166 46 206 0 15 12 36 27 51 22 20 34 24 60 19 25 -5 33 -2 42 15 7 12 21 21
32 21 11 0 17 5 14 10 -7 12 -32 12 -60 0z"/>
<path d="M2755 4170 c-61 -17 -106 -37 -128 -58 -13 -12 -28 -22 -34 -22 -7 0
-14 -8 -18 -19 -3 -10 -14 -26 -25 -36 -18 -16 -19 -16 -30 22 -12 45 -30 70
-67 95 -36 23 -156 25 -212 2 -43 -17 -106 -85 -141 -153 -12 -25 -29 -51 -36
-59 -8 -7 -14 -23 -14 -35 0 -12 -11 -39 -25 -59 -14 -20 -25 -42 -25 -47 0
-6 -12 -25 -27 -43 -16 -18 -33 -42 -39 -53 -14 -25 -77 -32 -108 -12 -18 12
-23 25 -24 68 0 28 5 64 13 79 8 15 15 63 16 109 3 79 2 82 -29 114 -18 18
-32 40 -32 49 0 9 -16 27 -37 39 l-36 23 -38 -22 c-34 -20 -45 -21 -96 -13
-32 5 -73 6 -92 4 -18 -3 -70 2 -115 11 -87 18 -207 18 -213 0 -2 -7 21 -13
65 -16 39 -3 79 -12 92 -21 18 -12 48 -14 171 -11 138 3 149 2 149 -15 0 -10
-21 -32 -46 -51 -42 -30 -52 -33 -129 -34 -95 -2 -111 -11 -145 -80 -33 -70
-34 -70 90 -62 108 7 110 7 110 -14 0 -26 -37 -59 -65 -60 -12 0 -26 -5 -31
-10 -6 -6 -41 -18 -80 -28 -68 -17 -69 -18 -72 -52 -1 -19 -8 -48 -14 -63 -6
-16 -12 -47 -12 -70 -1 -41 -1 -42 -51 -53 -59 -13 -95 -30 -95 -45 0 -21 104
6 157 41 13 8 23 22 23 31 0 27 40 110 56 116 8 3 13 12 10 19 -7 18 23 37 99
65 100 36 123 70 88 130 -12 20 -25 29 -44 29 -30 0 -57 26 -43 40 9 9 100 30
130 30 11 0 12 -14 7 -62 -3 -35 -11 -72 -17 -83 -5 -11 -14 -47 -18 -80 -4
-33 -11 -82 -16 -110 -24 -130 -25 -135 -13 -135 6 0 11 7 11 15 0 7 7 18 16
23 10 5 18 27 21 55 3 26 12 52 19 58 9 7 14 32 14 63 0 30 6 60 15 72 8 11
14 42 15 75 0 30 6 61 12 67 7 7 16 41 19 75 4 34 11 78 16 97 8 32 12 35 43
35 31 0 35 -3 35 -26 1 -16 13 -37 33 -56 32 -29 32 -29 23 -93 -12 -83 -31
-151 -48 -168 -7 -7 -13 -32 -13 -56 0 -23 -5 -47 -11 -53 -17 -17 -1 -33 35
-33 17 0 36 -4 41 -9 6 -6 44 -11 85 -13 l74 -3 28 54 c15 30 32 57 36 60 8 6
48 86 87 176 24 55 105 177 130 195 11 8 36 16 55 17 19 1 63 4 97 6 51 4 63
2 69 -12 11 -27 15 -289 4 -296 -12 -8 -13 -48 -1 -61 14 -15 21 -200 8 -213
-7 -7 -7 -18 2 -37 8 -19 9 -30 1 -38 -5 -5 -10 -18 -10 -28 0 -12 -8 -18 -24
-18 -40 0 -56 11 -56 36 0 13 -5 32 -10 42 -6 9 -19 58 -28 107 l-18 90 -92
-1 c-84 0 -93 -2 -111 -25 -11 -13 -20 -30 -21 -38 0 -20 -41 -103 -64 -128
-26 -31 -39 -29 -79 12 -30 31 -36 33 -47 20 -14 -17 -56 -20 -65 -5 -4 7 -12
7 -25 0 -10 -5 -36 -10 -58 -10 -23 0 -45 -6 -52 -15 -7 -9 -30 -15 -54 -15
-22 -1 -52 -7 -66 -15 -17 -9 -29 -10 -37 -3 -7 5 -20 8 -30 6 -14 -3 -9 -10
23 -31 39 -26 41 -30 31 -56 -13 -36 -4 -69 29 -104 25 -27 25 -30 11 -60 -8
-18 -18 -57 -22 -87 -4 -30 -11 -60 -16 -66 -6 -7 -12 -36 -15 -65 -3 -30 -15
-74 -26 -99 -12 -26 -22 -75 -25 -120 -6 -100 -27 -142 -73 -148 -70 -9 -224
-1 -247 14 -12 8 -29 14 -37 14 -24 0 -36 32 -27 71 5 19 23 77 41 129 54 158
46 253 -30 332 -19 20 -45 49 -57 63 -17 19 -32 25 -63 25 -35 0 -48 -6 -80
-39 -32 -32 -41 -50 -55 -117 -33 -159 -48 -221 -71 -297 -13 -43 -24 -90 -24
-103 0 -14 -11 -53 -25 -87 -13 -34 -29 -80 -34 -102 -5 -22 -14 -57 -19 -77
-8 -31 -6 -41 11 -66 36 -50 64 -56 190 -42 62 7 121 17 131 22 22 12 114 26
246 38 52 5 111 13 130 19 48 15 53 14 80 -11 55 -52 146 -53 222 -3 38 25 58
69 58 128 0 26 50 140 70 161 6 6 13 0 19 -15 5 -13 21 -50 35 -81 14 -31 26
-60 26 -65 1 -4 26 -36 58 -71 48 -53 68 -67 127 -88 61 -23 87 -27 201 -28
105 -1 130 2 126 12 -2 7 5 26 17 42 11 16 21 34 21 40 0 16 -30 12 -36 -5 -3
-8 -22 -17 -42 -20 -21 -4 -48 -11 -62 -16 -47 -17 -147 -15 -168 4 -10 9 -31
17 -47 17 -22 0 -43 15 -92 65 -34 35 -65 77 -69 92 -4 16 -10 33 -13 38 -3 6
-11 35 -17 65 -13 61 -1 154 23 178 7 7 13 20 13 28 0 25 63 121 114 175 44
46 201 139 235 139 9 0 29 7 45 15 31 17 156 21 172 6 10 -10 72 -15 142 -13
30 2 42 6 42 17 0 11 -12 15 -44 15 -25 0 -57 5 -73 11 -50 19 -194 27 -238
13 -93 -29 -158 -56 -204 -84 -26 -17 -52 -30 -57 -30 -5 0 -21 -12 -36 -27
-44 -47 -58 -55 -84 -49 -17 5 -24 13 -24 30 0 13 -11 43 -24 68 l-24 46 24
12 c15 9 43 11 82 7 55 -6 63 -4 107 25 48 32 85 79 85 109 0 20 -28 45 -38
34 -4 -4 -1 -10 6 -12 6 -3 12 -12 12 -20 0 -18 -40 -63 -57 -63 -6 0 -13 -5
-15 -12 -3 -8 -77 -11 -261 -12 l-257 -1 0 28 c0 16 12 44 26 62 l25 34 120 0
c78 1 127 -4 141 -12 16 -9 22 -9 25 1 3 8 26 12 67 12 78 0 156 10 156 20 0
5 -13 13 -30 19 -34 11 -35 14 -16 49 8 15 17 39 20 53 9 44 53 79 98 79 22 0
40 -5 42 -12 3 -13 17 -52 42 -122 8 -21 21 -44 29 -52 7 -8 22 -25 32 -38 29
-36 55 -40 86 -13 15 12 27 28 27 35 0 7 5 12 10 12 6 0 15 11 20 25 11 30 29
32 61 5 13 -11 29 -23 34 -28 21 -17 79 -32 124 -32 65 1 128 20 186 57 41 26
51 29 58 17 12 -22 27 -17 27 10 0 13 7 29 15 36 8 7 17 28 21 49 3 20 12 53
20 74 22 58 19 122 -8 139 -25 17 -19 48 10 48 29 0 42 21 42 66 0 24 5 46 10
49 6 3 10 22 10 41 0 48 16 74 45 74 34 0 55 10 55 26 0 9 -11 14 -33 14 -35
0 -107 -53 -107 -78 0 -26 -38 -10 -80 33 -24 25 -52 45 -62 45 -10 0 -35 6
-55 14 -52 20 -102 25 -138 16z m119 -46 c9 -8 31 -18 50 -21 32 -5 51 -18 84
-58 19 -22 17 -107 -4 -147 -40 -79 -76 -86 -135 -28 -35 34 -40 45 -37 77 4
47 25 50 48 8 9 -16 24 -31 33 -33 14 -3 17 5 17 37 0 35 -4 42 -25 47 -13 3
-29 12 -36 20 -26 32 -119 6 -119 -33 0 -7 -7 -24 -16 -37 -11 -17 -12 -26 -4
-31 6 -4 15 -18 20 -30 6 -15 30 -34 64 -50 30 -14 56 -29 58 -33 2 -4 22 -22
46 -40 41 -33 42 -35 42 -93 0 -45 -6 -68 -24 -97 -37 -58 -66 -77 -148 -95
-72 -16 -77 -16 -114 2 -49 24 -144 113 -144 135 0 9 -5 24 -11 34 -14 23 13
92 35 92 9 0 16 -4 16 -9 0 -5 6 -16 13 -23 6 -7 21 -30 31 -51 11 -21 29 -40
42 -43 13 -3 28 -12 35 -20 19 -23 95 -18 118 7 16 18 18 26 9 43 -13 24 -49
55 -64 56 -6 0 -17 7 -24 15 -7 8 -22 15 -34 15 -27 1 -58 27 -77 65 -9 17
-23 45 -32 63 -18 36 -23 97 -8 106 5 3 12 17 15 31 7 29 74 94 96 95 8 0 29
9 45 20 37 25 116 27 139 4z m-1828 -859 c12 -8 24 -28 27 -44 4 -16 16 -35
27 -41 54 -29 63 -48 61 -128 -1 -46 -8 -83 -17 -96 -8 -11 -14 -35 -14 -52 0
-18 -4 -34 -8 -36 -15 -6 -52 -88 -52 -116 -1 -15 -7 -38 -15 -52 -17 -29 -19
-76 -5 -85 5 -3 19 -1 31 5 16 9 28 8 54 -4 21 -11 61 -16 113 -16 45 0 84 -4
87 -10 9 -14 51 -12 64 3 12 15 68 11 89 -6 9 -7 19 -4 35 14 17 18 24 42 30
104 9 91 14 152 16 178 1 9 10 25 21 34 16 14 20 30 20 78 1 37 6 67 15 79 9
12 15 41 15 71 0 28 6 58 13 66 37 46 121 65 147 34 7 -8 18 -15 25 -15 22 0
95 -74 95 -96 0 -12 -9 -33 -20 -47 -11 -14 -20 -36 -20 -49 0 -12 -7 -32 -15
-42 -8 -11 -15 -30 -15 -43 0 -13 -13 -50 -29 -82 -19 -40 -27 -67 -23 -89 3
-21 -2 -42 -14 -60 -44 -65 -56 -105 -49 -165 6 -55 5 -60 -22 -85 -24 -23
-37 -26 -98 -26 -67 -1 -70 0 -90 31 -16 26 -27 32 -55 33 -20 0 -47 -8 -60
-17 -20 -14 -46 -18 -130 -18 -65 0 -113 -5 -127 -13 -12 -6 -41 -12 -65 -12
-24 0 -53 -7 -64 -15 -12 -9 -43 -15 -84 -15 -37 0 -77 -6 -94 -15 -32 -17
-76 -20 -76 -5 0 6 -9 10 -20 10 -14 0 -20 7 -20 23 0 13 9 34 20 47 11 13 20
31 20 40 0 10 7 31 15 46 8 16 15 39 15 50 0 12 7 24 15 28 11 4 15 21 15 64
0 46 6 70 30 113 24 43 30 66 30 114 0 34 5 66 11 72 14 14 38 119 39 169 0
50 36 97 80 103 3 1 15 -6 26 -14z"/>
<path d="M5010 4090 c0 -11 5 -20 10 -20 6 0 10 9 10 20 0 11 -4 20 -10 20 -5
0 -10 -9 -10 -20z"/>
<path d="M1119 4083 c-1 -10 -3 -34 -4 -53 -4 -52 -24 -168 -41 -225 -39 -139
-44 -160 -44 -181 0 -13 -7 -39 -16 -58 -10 -21 -14 -44 -10 -60 8 -34 26 -34
26 1 0 14 7 34 15 43 9 10 19 35 22 56 4 21 12 45 20 52 7 7 13 32 13 56 0 23
4 46 10 52 16 16 51 213 48 272 -2 45 -7 58 -20 60 -12 2 -19 -3 -19 -15z"/>
<path d="M4976 4044 c-11 -8 -43 -14 -72 -14 -29 0 -55 -4 -58 -9 -3 -5 -21
-12 -39 -15 -39 -7 -107 -61 -107 -84 0 -9 -7 -26 -15 -36 -8 -11 -15 -32 -15
-47 0 -14 -7 -32 -15 -39 -12 -10 -15 -28 -13 -68 3 -46 7 -58 29 -75 23 -16
36 -18 86 -12 54 6 61 10 77 39 25 48 18 80 -19 86 -25 4 -30 10 -33 38 l-3
33 64 -3 c50 -2 68 1 81 15 10 9 31 17 47 17 31 0 39 14 13 24 -27 10 -71 7
-100 -9 -36 -19 -91 -19 -109 -1 -12 11 -11 17 1 35 8 11 22 21 30 21 8 0 31
11 52 24 20 14 54 28 74 31 37 7 73 36 67 54 -3 5 -12 4 -23 -5z m-206 -181
c0 -5 -8 -30 -18 -57 -20 -56 -42 -72 -42 -32 0 39 27 96 44 96 9 0 16 -3 16
-7z"/>
<path d="M2252 3962 c-12 -27 -37 -71 -56 -100 -36 -52 -44 -78 -26 -84 5 -1
35 -1 65 0 39 3 58 9 64 21 6 9 7 61 4 114 -7 112 -19 123 -51 49z"/>
<path d="M3186 3718 c-9 -12 -16 -41 -16 -63 0 -23 -5 -46 -12 -53 -6 -6 -11
-24 -11 -39 1 -34 -52 -73 -98 -73 -38 0 -37 -17 1 -25 47 -10 121 44 134 98
3 15 11 27 16 27 6 0 10 9 10 19 0 26 26 51 53 51 40 0 50 -15 52 -77 2 -77 3
-83 15 -83 6 0 10 10 10 22 0 12 7 29 16 39 10 12 18 45 21 98 l6 81 -91 0
c-83 0 -92 -2 -106 -22z"/>
<path d="M2190 3609 c0 -5 19 -9 42 -9 49 0 47 5 -4 13 -21 3 -38 2 -38 -4z"/>
<path d="M3736 3318 c-17 -9 -44 -13 -131 -17 -11 -1 -39 -19 -63 -40 -36 -33
-44 -47 -54 -97 -19 -104 -37 -158 -62 -189 -22 -27 -28 -29 -92 -28 -38 0
-81 6 -96 12 -26 10 -27 13 -22 58 3 26 15 78 25 114 21 73 24 119 9 119 -5 0
-10 -10 -10 -23 0 -12 -9 -28 -20 -35 -12 -7 -20 -23 -20 -40 0 -15 -7 -36
-15 -46 -8 -11 -15 -39 -15 -62 0 -24 -5 -46 -11 -49 -18 -12 -30 -55 -19 -74
8 -15 28 -19 117 -25 59 -4 122 -12 140 -18 29 -10 34 -9 52 13 11 13 20 32
21 42 0 19 27 67 45 79 5 4 10 20 11 35 0 16 1 56 2 90 2 54 6 65 33 92 29 29
35 31 104 31 64 0 76 3 85 20 15 28 90 29 90 2 0 -36 -41 -144 -70 -184 -24
-33 -30 -51 -30 -93 0 -38 -7 -65 -26 -98 -20 -36 -23 -50 -15 -66 8 -14 7
-27 -4 -48 -8 -15 -15 -37 -15 -48 0 -11 -7 -29 -15 -39 -8 -11 -15 -39 -15
-62 0 -24 -4 -45 -9 -48 -5 -4 -12 -25 -16 -48 -11 -63 -41 -98 -84 -98 -27 0
-42 -8 -67 -35 -37 -41 -88 -49 -99 -15 -3 11 -13 20 -21 20 -20 0 -17 -13 9
-37 39 -37 63 -37 132 -4 35 17 70 31 79 31 37 0 102 118 121 220 4 19 18 66
31 103 13 38 24 84 24 103 0 20 5 45 12 57 6 12 19 53 29 92 27 103 64 126
143 86 20 -11 50 -24 67 -30 40 -14 40 -43 -5 -266 -17 -82 -26 -114 -60 -215
-36 -104 -35 -151 5 -184 36 -31 89 -34 134 -10 17 9 48 26 70 37 22 10 48 26
58 35 39 35 87 184 87 273 0 30 7 55 19 71 11 13 23 38 26 54 24 113 55 191
81 203 12 5 42 12 66 16 l45 7 5 -59 c3 -32 13 -71 21 -88 23 -43 44 -96 51
-127 6 -27 4 -28 -29 -28 -40 0 -46 -15 -12 -31 21 -10 64 -64 79 -102 4 -9
16 -20 25 -23 10 -3 44 -19 76 -35 123 -62 284 -22 235 58 -14 24 -80 69 -128
89 -8 3 -29 12 -47 20 -17 8 -40 14 -51 14 -43 0 -112 62 -112 101 0 11 -42
72 -52 77 -15 7 -9 129 7 142 8 7 15 18 15 25 0 19 101 105 123 105 10 0 20 6
23 14 3 7 23 16 45 20 21 3 39 10 39 14 0 9 82 33 110 33 24 0 113 -25 137
-39 12 -6 33 -12 47 -12 14 0 28 -4 31 -10 3 -5 17 -10 30 -10 31 0 102 -72
110 -112 14 -63 -20 -154 -77 -207 -38 -36 -98 -29 -166 21 -31 23 -60 46 -64
52 -14 20 -8 84 8 100 23 23 54 20 54 -5 0 -21 50 -79 69 -79 12 0 51 58 51
77 0 12 -64 53 -84 53 -8 0 -19 7 -26 15 -18 22 -153 21 -175 -2 -26 -25 -65
-91 -65 -108 0 -37 63 -115 94 -115 12 0 30 -7 40 -15 11 -8 27 -15 36 -15 8
0 38 -20 67 -45 28 -25 60 -45 70 -45 11 0 32 -14 48 -30 27 -29 29 -35 27
-98 -2 -40 -9 -73 -18 -83 -8 -8 -14 -22 -14 -30 -1 -20 -35 -59 -53 -59 -12
0 -26 -9 -74 -50 -7 -5 -28 -10 -48 -10 -20 0 -52 -7 -72 -15 -20 -9 -43 -13
-52 -10 -9 2 -33 1 -53 -4 -29 -7 -45 -4 -80 13 -24 11 -49 27 -56 34 -7 6
-19 12 -26 12 -6 0 -27 13 -46 30 -19 16 -40 29 -45 30 -18 0 -65 50 -65 69 0
10 -7 24 -15 31 -10 8 -15 30 -15 61 0 39 4 49 20 54 21 7 26 20 11 30 -13 7
-50 -34 -58 -63 -20 -81 32 -175 137 -249 135 -94 226 -112 383 -77 130 29
212 86 261 181 24 48 22 165 -5 219 -20 42 -20 44 -2 67 10 14 30 31 44 39 14
9 37 37 50 64 19 40 23 64 22 127 l-1 78 -48 49 c-51 52 -60 56 -164 88 -159
49 -191 55 -229 39 -20 -8 -75 -27 -122 -42 -70 -22 -91 -25 -108 -16 -20 11
-21 9 -21 -23 0 -26 -5 -36 -20 -41 -11 -3 -29 -18 -40 -32 -19 -24 -41 -32
-140 -49 -49 -9 -117 -42 -126 -62 -4 -9 -11 -42 -15 -72 -15 -108 -26 -150
-42 -168 -11 -12 -17 -36 -17 -68 0 -27 -7 -67 -15 -89 -8 -22 -15 -58 -15
-80 -1 -22 -11 -58 -23 -80 -18 -32 -28 -41 -53 -43 -21 -2 -43 -15 -63 -38
-29 -31 -37 -34 -86 -34 l-55 0 0 40 c0 22 9 57 20 77 11 21 20 50 20 64 0 15
7 32 15 39 8 7 15 20 15 30 0 10 7 23 15 30 10 9 15 32 15 74 0 34 5 67 11 73
6 6 13 39 16 74 3 35 12 73 19 84 8 11 14 40 14 66 0 64 -23 84 -90 76 -43 -5
-51 -3 -60 13 -8 14 -21 20 -46 20 -27 0 -36 5 -44 24 -9 25 -4 63 13 84 11
14 110 16 136 3 27 -15 113 -15 148 0 28 11 36 11 65 -5 47 -25 300 -20 338 7
13 9 38 17 54 17 22 0 27 3 19 11 -7 7 -29 9 -60 5 -111 -16 -190 -17 -266 -5
-45 7 -167 14 -271 15 -157 3 -191 6 -198 19 -11 18 -73 20 -102 3z m1038
-634 c23 -9 20 -21 -6 -27 -22 -6 -48 7 -48 24 0 10 31 12 54 3z"/>
<path d="M3135 3279 c-16 -5 -54 -17 -83 -26 -61 -19 -102 -64 -102 -113 0
-17 -9 -48 -20 -70 -11 -22 -20 -51 -20 -64 0 -19 -11 -33 -40 -52 -22 -15
-40 -33 -40 -40 0 -20 -28 -17 -61 7 -33 23 -57 23 -212 -6 -84 -15 -137 -37
-137 -56 0 -14 27 -10 33 5 4 11 23 13 90 9 77 -5 88 -4 113 16 36 28 94 29
101 1 3 -11 9 -20 14 -20 14 0 10 -52 -6 -80 -8 -14 -14 -39 -15 -56 0 -17 -7
-37 -15 -44 -8 -7 -15 -20 -15 -30 0 -10 -7 -23 -15 -30 -8 -7 -15 -23 -15
-35 0 -13 -7 -25 -15 -29 -10 -3 -15 -19 -15 -45 0 -22 -3 -41 -7 -43 -5 -1
-21 -23 -36 -47 -25 -38 -32 -43 -59 -39 -39 6 -113 -27 -85 -37 9 -4 43 -4
75 0 53 6 61 11 107 60 37 40 58 74 80 134 17 45 33 81 36 81 12 0 20 -71 13
-115 -3 -25 -3 -52 0 -61 5 -14 9 -12 27 10 11 14 23 42 26 63 4 20 12 48 20
63 7 14 13 32 13 41 0 9 7 22 15 29 8 7 15 28 15 47 0 18 7 45 16 59 16 23 15
26 -2 46 -11 13 -29 31 -41 41 -13 10 -23 25 -23 32 0 21 41 45 77 45 32 0 33
1 33 44 0 24 7 57 15 72 8 16 15 49 15 74 0 25 6 52 13 60 14 19 93 50 125 50
12 0 27 9 34 20 7 11 21 20 30 20 10 0 18 5 18 10 0 12 -34 12 -75 -1z m-305
-536 c0 -10 -7 -27 -15 -37 -14 -19 -15 -18 -15 10 0 17 3 34 7 37 12 12 23 7
23 -10z"/>
<path d="M2757 3180 c-9 -11 -26 -20 -37 -20 -11 0 -23 -7 -26 -15 -5 -12 -25
-15 -94 -15 -49 0 -92 -4 -95 -10 -3 -5 -14 -10 -23 -10 -9 0 -30 -7 -46 -15
-15 -8 -37 -15 -49 -15 -26 0 -104 -64 -113 -93 -3 -12 -19 -41 -35 -65 -18
-26 -29 -56 -29 -76 0 -21 -6 -36 -15 -40 -11 -4 -15 -22 -15 -69 0 -60 2 -66
37 -100 32 -33 42 -37 88 -37 93 0 143 11 170 38 33 32 69 106 62 125 -6 16
-114 44 -124 33 -3 -3 6 -18 20 -32 32 -32 33 -36 10 -55 -36 -30 -70 -40
-122 -37 -53 3 -54 4 -68 42 -11 35 -11 47 3 95 26 91 85 191 113 191 5 0 11
7 15 15 3 8 14 15 23 15 10 0 29 7 41 16 19 13 71 26 169 39 45 7 83 23 83 35
0 5 10 10 23 10 27 0 74 47 61 60 -6 6 -16 2 -27 -10z"/>
<path d="M3088 2744 c-5 -4 -8 -17 -8 -29 0 -13 -7 -28 -15 -35 -8 -7 -15 -29
-15 -50 0 -21 -7 -43 -15 -50 -8 -7 -15 -23 -15 -36 0 -12 -4 -25 -9 -29 -5
-3 -12 -19 -16 -35 -5 -23 -12 -30 -29 -30 -13 0 -31 -9 -41 -20 -12 -13 -31
-20 -57 -20 -39 0 -51 -13 -22 -24 29 -11 57 -6 111 19 53 25 90 68 108 124 4
13 18 42 31 65 13 22 28 53 34 67 10 24 18 27 82 33 55 5 76 3 94 -9 42 -27
45 -46 29 -147 -9 -56 -11 -96 -6 -101 16 -16 51 54 51 99 0 25 6 47 15 54 9
7 15 29 15 54 0 23 5 47 11 53 7 7 2 16 -18 29 -23 16 -51 20 -168 22 -77 2
-143 0 -147 -4z"/>
<path d="M2028 2183 c-33 -8 -18 -23 22 -23 22 0 40 5 40 10 0 6 -4 10 -9 10
-5 0 -15 2 -23 4 -7 2 -21 2 -30 -1z"/>
<path d="M2318 2183 c-44 -11 -10 -23 67 -23 67 0 87 -3 91 -15 4 -8 12 -15
18 -15 20 0 56 -57 56 -87 0 -20 -12 -38 -41 -65 -35 -32 -49 -38 -85 -38 -49
0 -61 -11 -36 -33 16 -15 22 -15 74 1 46 15 63 26 88 60 37 52 39 94 6 143
-35 52 -93 79 -164 78 -31 -1 -65 -3 -74 -6z"/>
<path d="M2667 2183 c-18 -18 0 -23 78 -23 51 0 85 -4 85 -10 0 -6 11 -15 25
-20 14 -5 25 -16 25 -25 0 -8 4 -15 10 -15 5 0 12 -11 16 -24 14 -56 -67 -130
-135 -124 -35 3 -36 2 -39 -34 -3 -37 -5 -38 -41 -38 l-38 0 1 139 c0 77 -2
143 -7 147 -19 19 -28 -22 -30 -134 l-2 -121 29 -30 c37 -39 54 -39 96 -1 33
29 39 32 92 44 30 7 79 49 97 83 6 12 11 40 11 63 0 35 -4 43 -30 58 -16 9
-30 20 -30 24 0 4 -18 17 -40 28 -39 20 -158 29 -173 13z"/>
<path d="M3077 2172 c-55 -37 -111 -136 -124 -219 -4 -24 -1 -33 8 -33 13 1
21 14 69 125 51 119 48 115 85 115 24 0 35 -5 35 -15 0 -8 4 -15 10 -15 5 0
12 -16 16 -35 3 -19 10 -35 15 -35 5 0 9 -6 9 -14 0 -18 47 -113 60 -121 6 -3
10 -15 10 -26 0 -28 24 -19 28 10 2 13 -3 30 -11 39 -7 9 -22 40 -32 67 -10
28 -24 57 -31 66 -8 8 -14 20 -14 26 0 14 -77 83 -93 83 -6 0 -24 -8 -40 -18z"/>
<path d="M3383 2183 c-34 -13 -5 -23 67 -23 65 0 84 -4 99 -19 10 -10 24 -20
31 -23 8 -2 15 -27 18 -59 3 -46 1 -57 -17 -73 -27 -25 -27 -32 8 -66 l29 -29
6 52 c13 98 7 170 -16 195 -12 12 -29 22 -37 22 -9 0 -25 7 -35 15 -19 15
-125 20 -153 8z"/>
<path d="M3737 2183 c-19 -18 1 -23 88 -23 88 0 118 9 79 24 -21 8 -159 8
-167 -1z"/>
<path d="M4080 2180 c-12 -8 -12 -10 3 -16 9 -3 25 -3 34 0 15 6 15 8 3 16 -8
6 -17 10 -20 10 -3 0 -12 -4 -20 -10z"/>
<path d="M2100 2138 c0 -14 6 -39 14 -55 24 -46 46 -100 46 -112 0 -6 4 -11 9
-11 5 0 14 -14 20 -31 6 -17 15 -28 21 -24 14 9 12 47 -5 69 -8 10 -17 37 -21
60 -4 27 -19 56 -45 86 -38 44 -39 44 -39 18z"/>
<path d="M2270 2135 c-20 -46 -19 -230 2 -251 15 -15 17 -11 23 51 4 37 3 104
-2 149 -9 79 -10 80 -23 51z"/>
<path d="M1956 2106 c-14 -25 -26 -51 -26 -59 0 -8 -6 -20 -13 -26 -16 -12
-43 -118 -34 -127 3 -4 9 5 13 20 3 14 12 26 20 26 8 0 14 10 14 24 0 13 7 29
15 36 8 7 15 20 15 29 0 9 6 25 13 36 17 25 30 85 18 85 -5 0 -21 -20 -35 -44z"/>
<path d="M4035 2140 c-4 -6 -7 -63 -8 -126 -1 -100 2 -118 20 -142 18 -25 27
-27 94 -30 80 -3 119 3 119 18 0 6 -41 10 -100 10 l-100 0 0 140 c0 128 -6
160 -25 130z"/>
<path d="M4138 2053 c-2 -54 -2 -101 1 -104 10 -12 122 3 118 15 -2 6 -17 13
-33 14 -45 6 -54 19 -54 82 0 32 -3 65 -6 74 -14 36 -22 10 -26 -81z"/>
<path d="M3338 2115 c-11 -15 -20 -51 -24 -101 -6 -74 -4 -80 15 -92 12 -7 26
-10 31 -7 11 7 12 154 1 197 l-6 26 -17 -23z"/>
<path d="M3685 2130 c-4 -6 -7 -61 -7 -121 l0 -110 33 -30 c31 -27 38 -29 120
-29 64 0 90 4 99 15 10 12 -3 15 -102 17 -106 3 -113 4 -110 23 10 78 12 166
5 199 -9 40 -26 56 -38 36z"/>
<path d="M3935 2092 c-4 -4 -35 -7 -68 -7 -55 0 -62 -2 -62 -20 0 -18 7 -20
60 -20 60 0 60 0 60 -30 0 -30 0 -30 -60 -30 -56 0 -60 -2 -63 -24 -4 -23 -2
-24 52 -18 71 7 95 0 102 -29 3 -13 10 -24 15 -24 12 0 11 27 -2 53 -7 11 -11
49 -10 83 2 59 -7 83 -24 66z"/>
<path d="M2388 2083 c-13 -3 -18 -15 -18 -39 0 -32 2 -34 33 -34 22 0 41 8 53
21 19 21 18 21 -5 40 -23 19 -31 21 -63 12z"/>
<path d="M2727 2083 c-12 -11 -8 -60 6 -71 8 -7 25 -8 43 -3 55 14 38 81 -21
81 -12 0 -25 -3 -28 -7z"/>
<path d="M3447 2084 c-4 -4 -7 -22 -7 -41 0 -40 18 -50 57 -31 47 22 40 63
-13 74 -16 3 -32 2 -37 -2z"/>
<path d="M2037 2053 c-4 -3 -7 -19 -7 -35 0 -21 5 -28 20 -28 21 0 24 10 14
48 -6 22 -15 27 -27 15z"/>
<path d="M3097 2033 c-19 -22 -8 -47 19 -41 12 2 19 12 19 27 0 31 -17 37 -38
14z"/>
<path d="M3447 1943 c-4 -4 -4 -22 -1 -40 l6 -33 -47 0 c-41 0 -46 -2 -35 -15
17 -21 47 -19 77 5 32 25 44 25 74 -1 14 -12 31 -18 44 -15 11 3 23 6 28 6 4
0 7 5 7 10 0 6 -18 10 -40 10 -22 0 -40 5 -40 11 0 6 -9 24 -21 40 -20 28 -39
36 -52 22z"/>
<path d="M1997 1922 c-9 -10 -17 -26 -17 -35 0 -13 -9 -17 -35 -17 -38 0 -47
-15 -14 -25 13 -5 33 2 59 19 49 32 74 33 116 1 37 -28 66 -32 83 -11 11 12 6
15 -31 18 -39 3 -43 6 -48 33 -5 28 -9 30 -51 33 -34 2 -49 -2 -62 -16z"/>
<path d="M3055 1932 c-3 -3 -5 -18 -5 -34 0 -26 -3 -28 -40 -28 -22 0 -40 -4
-40 -10 0 -15 68 -17 80 -2 9 13 49 32 67 32 9 0 34 -12 55 -26 27 -19 44 -25
63 -20 37 9 30 26 -11 26 -31 0 -37 4 -49 34 -14 33 -17 35 -65 34 -28 -1 -52
-4 -55 -6z"/>
<path d="M2300 1860 c0 -5 15 -10 34 -10 19 0 38 5 41 10 4 6 -10 10 -34 10
-23 0 -41 -4 -41 -10z"/>
</g>
</svg>
