<?xml version="1.0" standalone="no"?>
<!DOCTYPE svg PUBLIC "-//W3C//DTD SVG 20010904//EN"
 "http://www.w3.org/TR/2001/REC-SVG-20010904/DTD/svg10.dtd">
<svg version="1.0" xmlns="http://www.w3.org/2000/svg"
 width="200.000000pt" height="200.000000pt" viewBox="0 0 200.000000 200.000000"
 preserveAspectRatio="xMidYMid meet">
<metadata>
Created by potrace 1.10, written by Peter Selinger 2001-2011
</metadata>
<g transform="translate(0.000000,200.000000) scale(0.050000,-0.050000)"
fill="#ccccff" stroke="none">
<path d="M1675 3770 c-1102 -209 -1755 -1370 -1354 -2408 563 -1461 2599
-1558 3289 -156 648 1318 -498 2836 -1935 2564z m755 -183 c99 -27 200 -48
225 -48 25 0 45 -7 45 -17 0 -14 228 -162 250 -162 4 0 37 -27 72 -59 36 -33
74 -54 85 -47 10 7 14 3 7 -8 -7 -11 16 -47 52 -79 75 -69 101 -102 194 -237
37 -55 75 -105 84 -112 10 -6 12 -26 5 -44 -11 -28 -22 -24 -73 24 -68 63
-434 106 -492 57 -28 -23 -271 -22 -279 1 -6 18 -195 13 -275 -6 -98 -23 -157
-25 -206 -7 -33 12 -42 10 -32 -6 8 -13 5 -18 -6 -11 -31 20 -188 39 -266 33
-38 -3 -135 -5 -215 -4 -134 1 -150 -3 -208 -58 -35 -32 -76 -54 -91 -48 -16
6 -23 2 -16 -9 7 -11 3 -20 -9 -20 -11 0 -21 13 -21 29 0 15 -22 46 -49 67
-27 21 -43 46 -35 55 8 8 1 8 -15 -2 -29 -16 -333 -16 -361 1 -8 5 -33 -14
-57 -41 -23 -27 -52 -49 -64 -49 -12 0 -16 -8 -10 -19 6 -10 3 -23 -7 -30 -10
-6 -14 -29 -8 -51 6 -22 0 -53 -13 -69 -34 -40 -52 -244 -24 -277 28 -34 -27
-122 -63 -101 -13 7 -17 6 -9 -3 8 -9 -4 -45 -26 -81 -24 -39 -34 -79 -26
-100 11 -28 6 -33 -19 -23 -27 10 -29 4 -14 -37 11 -27 11 -49 2 -49 -10 0
-23 -14 -30 -31 -6 -18 -3 -26 8 -19 23 14 26 -11 7 -60 -10 -27 -16 -28 -29
-7 -13 20 -17 21 -18 2 0 -14 -13 -25 -30 -25 -16 0 -30 9 -30 20 0 11 7 20
15 20 28 0 29 225 1 243 -20 12 -20 16 -1 17 17 0 25 40 25 132 0 143 71 425
115 458 15 12 28 41 30 65 2 24 16 49 30 54 15 6 22 20 15 31 -7 11 -5 20 4
21 9 0 51 52 93 115 43 62 112 141 154 174 43 33 78 71 78 85 1 14 8 23 16 21
30 -9 103 45 115 85 8 23 19 37 25 31 6 -6 36 7 68 30 31 22 66 35 77 28 11
-7 20 2 20 19 0 17 13 31 29 31 15 0 40 12 55 27 15 15 54 32 87 38 32 6 113
27 179 45 268 76 566 75 860 -3z m0 -852 c-7 -25 -30 -115 -50 -202 -48 -205
-150 -296 -125 -112 l11 82 -67 -7 c-55 -5 -69 -17 -89 -76 -30 -89 -100 -113
-76 -27 9 32 16 86 16 122 0 36 6 65 13 65 8 0 19 35 27 78 9 53 25 81 51 88
47 12 63 -8 38 -47 -29 -46 -22 -119 11 -121 17 -2 45 -4 64 -5 26 -2 39 20
52 83 12 60 30 92 60 104 69 27 80 23 64 -25z m570 25 c0 -12 -17 -86 -38
-165 -20 -80 -43 -170 -50 -200 -20 -84 -66 -66 -114 45 -52 120 -73 126 -90
23 -18 -113 -34 -132 -87 -104 -24 13 -39 34 -34 47 6 13 29 85 52 159 27 86
57 142 83 156 50 27 43 36 88 -117 38 -130 61 -133 78 -10 21 144 37 186 75
186 20 0 37 -9 37 -20z m-1985 -20 c60 0 66 -4 45 -30 -14 -16 -55 -30 -92
-30 -45 0 -73 -12 -87 -39 -30 -56 -28 -58 54 -66 l75 -7 -84 -37 c-68 -29
-86 -49 -100 -107 -13 -54 -30 -75 -71 -86 -66 -17 -65 -26 -13 148 23 77 38
172 34 209 l-8 69 89 -12 c49 -7 120 -12 158 -12z m165 -29 c22 -42 21 -67 -5
-158 -30 -108 -30 -110 12 -121 103 -28 125 -15 183 103 97 194 124 225 201
225 l69 0 3 -135 c2 -74 4 -175 5 -223 2 -102 -40 -136 -59 -48 -28 123 -30
126 -97 126 -54 0 -70 -11 -98 -70 -33 -69 -61 -87 -82 -53 -12 20 -103 13
-204 -15 -88 -24 -88 -25 -45 163 21 91 42 185 48 210 13 58 36 57 69 -4z
m812 8 c36 -30 36 -81 0 -129 -31 -43 -92 -13 -92 45 0 24 6 25 30 5 24 -20
30 -19 30 6 0 48 -82 66 -112 25 -33 -45 -20 -72 58 -121 74 -47 92 -117 44
-170 -72 -80 -179 -67 -242 30 -47 71 -14 103 43 41 45 -49 107 -66 136 -38
17 18 -46 87 -80 87 -26 0 -87 98 -87 140 0 96 186 150 272 79z m587 12 c19
-22 19 -46 2 -97 -24 -74 -40 -135 -55 -218 -12 -63 -54 -85 -86 -46 -15 18
-16 39 -4 64 11 20 26 86 33 146 23 186 50 223 110 151z m755 0 c-4 -10 -42
-28 -85 -40 -136 -37 -211 -251 -88 -251 66 0 103 53 57 81 -34 22 -23 31 57
48 75 16 82 -8 40 -129 -34 -95 -52 -120 -87 -120 -17 0 -25 9 -18 20 7 12
-11 15 -48 7 -193 -38 -211 291 -20 387 54 28 201 26 192 -3z m168 -29 c13 20
17 13 18 -27 0 -30 9 -55 21 -55 11 0 19 -11 18 -25 -8 -61 2 -97 24 -83 16
10 20 4 11 -19 -7 -18 -4 -33 6 -33 17 0 8 -176 -13 -240 -8 -25 -15 -23 -38
9 -16 21 -29 33 -29 25 0 -7 -19 -6 -42 3 -48 18 -74 427 -30 475 17 18 24 14
29 -17 5 -33 10 -36 25 -13z m-2057 -415 c55 -34 -42 -67 -197 -67 -161 0
-203 18 -155 66 15 15 328 16 352 1z m-465 -79 c0 -115 -64 -129 -117 -25 -35
68 -16 99 58 93 52 -4 59 -12 59 -68z m1580 -30 c0 -12 -13 -50 -28 -85 -25
-55 -46 -125 -63 -206 -34 -161 -72 -239 -128 -263 -87 -39 -101 -19 -71 95
30 114 23 121 -120 121 -86 0 -87 0 -120 -100 -25 -76 -45 -103 -83 -112 -70
-18 -72 -8 -27 122 32 92 35 122 16 145 -20 23 -18 34 8 53 18 13 39 58 47
100 12 62 27 82 84 105 88 37 89 36 52 -90 -36 -124 -41 -116 76 -133 103 -15
157 39 157 157 0 56 30 85 100 98 87 16 100 15 100 -7z m951 -59 c72 -60 -1
-218 -88 -190 -56 18 -90 65 -75 104 12 30 16 30 41 -5 23 -30 33 -33 54 -13
36 36 -1 66 -96 78 -131 17 -168 -125 -42 -165 230 -72 219 -282 -16 -317
-112 -17 -260 58 -281 141 -21 82 18 96 78 29 57 -64 120 -89 197 -78 78 11
53 64 -56 116 -216 104 -214 272 4 348 84 29 214 7 280 -48z m-2770 16 c49
-58 48 -110 -1 -235 -62 -158 -60 -160 218 -167 l68 -2 40 200 c51 258 77 291
173 213 l44 -35 -60 -180 c-33 -98 -63 -201 -67 -229 -6 -52 -136 -91 -136
-41 0 24 -108 15 -350 -30 -165 -31 -182 -21 -143 83 29 80 52 161 95 338 37
152 54 164 119 85z m1112 15 c-6 -20 -26 -27 -189 -70 -205 -53 -284 -320 -99
-336 56 -5 78 4 103 39 42 60 40 72 -10 88 -64 20 -20 45 92 52 119 8 126 -27
38 -212 -46 -98 -176 -172 -141 -80 8 19 -5 21 -60 6 -348 -96 -384 401 -37
517 77 26 312 23 303 -4z m1247 7 c0 -23 -50 -54 -110 -68 -93 -22 -103 -38
-140 -224 -37 -181 -92 -265 -175 -265 -42 0 -44 35 -6 135 28 75 71 263 71
313 0 16 -33 32 -80 40 -70 11 -102 44 -72 74 14 13 512 9 512 -5z m473 -622
c-5 -69 -12 -129 -14 -135 -2 -5 -2 -19 0 -30 3 -11 -3 -13 -11 -4 -14 13
-127 -204 -125 -239 0 -7 -7 -18 -17 -25 -38 -27 -186 -219 -186 -241 0 -13
-8 -19 -17 -13 -9 6 -35 -9 -57 -34 -23 -24 -74 -69 -114 -100 -40 -31 -67
-66 -59 -78 7 -12 4 -17 -6 -10 -26 15 -370 -156 -351 -175 8 -8 1 -12 -16 -9
-47 9 -160 -23 -160 -45 0 -11 -8 -14 -18 -8 -23 14 -144 -10 -134 -26 5 -7
-117 -13 -269 -13 -153 0 -262 7 -243 15 19 8 -4 10 -51 3 -47 -6 -85 -3 -85
7 0 10 -28 18 -62 18 -34 0 -69 12 -77 26 -9 14 -40 26 -70 26 -29 0 -48 5
-41 11 6 6 -52 40 -129 76 -151 70 -334 200 -326 232 4 10 -2 14 -11 9 -9 -6
-43 7 -75 28 -33 21 -51 39 -41 39 10 0 -10 27 -45 60 -34 33 -56 60 -48 61 8
0 -3 16 -25 35 -22 19 -53 58 -68 88 -15 30 -36 50 -46 44 -9 -6 -15 -3 -11 6
3 9 -26 84 -64 166 -38 83 -67 167 -64 188 4 21 -6 45 -20 54 -19 13 -14 17
19 18 26 0 41 -8 35 -19 -30 -48 185 -57 354 -15 129 32 158 35 145 15 -18
-31 105 -25 200 10 123 44 169 3 90 -81 -71 -76 -74 -177 -9 -254 31 -36 50
-50 43 -31 -7 19 -4 35 7 35 10 0 19 -8 19 -18 0 -32 120 -38 138 -6 12 20 21
22 30 7 15 -25 156 -32 179 -10 21 22 120 22 155 0 21 -12 54 -11 96 3 36 13
58 14 52 3 -7 -10 2 -20 19 -21 58 -3 151 -2 156 3 15 13 95 11 95 -2 0 -19
183 -12 216 8 13 9 24 7 24 -4 0 -28 103 -48 127 -24 25 25 106 28 121 4 14
-23 112 -4 112 21 0 10 -9 13 -20 6 -11 -7 -31 -5 -45 4 -16 10 0 19 45 26 64
9 70 16 74 80 5 69 4 69 -16 15 -41 -105 -158 -79 -158 35 0 50 9 90 20 90 11
0 20 -31 20 -70 0 -61 6 -70 50 -70 55 0 71 84 29 161 -47 89 75 190 148 122
24 -22 57 -43 73 -47 17 -3 35 -13 42 -22 6 -9 60 -16 120 -16 154 1 198 8
198 31 0 12 8 9 17 -5 13 -20 23 -18 45 9 24 30 24 32 -2 17 -26 -15 -26 -13
-3 16 15 18 34 29 43 24 8 -5 20 8 26 30 21 83 37 35 27 -85z m-2137 -185 c35
-73 38 -90 14 -90 -17 0 -30 9 -30 20 0 28 -67 25 -96 -4 -40 -40 -45 -7 -11
80 42 107 68 106 123 -6z m244 60 c31 -38 11 -91 -40 -104 -22 -6 -40 -19 -40
-28 0 -10 -13 -18 -30 -18 -22 0 -30 23 -30 90 0 97 80 132 140 60z m240 0
c34 -41 12 -86 -49 -102 -28 -7 -51 -20 -51 -30 0 -10 -9 -18 -20 -18 -11 0
-20 41 -20 90 0 97 80 132 140 60z m220 -49 c48 -95 49 -101 10 -101 -16 0
-30 9 -30 20 0 28 -75 25 -84 -3 -5 -13 -18 -19 -29 -15 -26 10 42 178 72 178
11 0 38 -36 61 -79z m253 -16 c3 -89 -8 -101 -51 -60 -22 20 -29 20 -36 0 -24
-64 -56 -20 -49 66 11 137 131 131 136 -6z m227 75 c0 -11 -18 -20 -40 -20
-22 0 -40 -9 -40 -21 0 -11 13 -18 29 -15 15 3 27 -3 25 -14 -1 -11 -14 -17
-28 -14 -14 3 -26 -4 -26 -15 0 -12 23 -21 50 -21 28 0 50 -9 50 -20 0 -11
-34 -20 -75 -20 l-75 0 4 85 c2 47 4 87 5 90 4 16 121 1 121 -15z"/>
<path d="M1482 2609 c-52 -89 -52 -89 8 -89 45 0 50 8 50 80 0 98 -5 99 -58 9z"/>
</g>
</svg>
