<?xml version="1.0" standalone="no"?>
<!DOCTYPE svg PUBLIC "-//W3C//DTD SVG 20010904//EN"
 "http://www.w3.org/TR/2001/REC-SVG-20010904/DTD/svg10.dtd">
<svg version="1.0" xmlns="http://www.w3.org/2000/svg"
 width="200.000000pt" height="200.000000pt" viewBox="0 0 200.000000 200.000000"
 preserveAspectRatio="xMidYMid meet">
<metadata>
Created by potrace 1.10, written by Peter Selinger 2001-2011
</metadata>
<g transform="translate(0.000000,200.000000) scale(0.100000,-0.100000)"
fill="#ccccff" stroke="none">
<path d="M850 1886 c-392 -71 -689 -380 -741 -771 -60 -454 234 -879 688 -992
103 -26 323 -23 428 6 317 85 561 329 646 646 29 105 32 325 6 428 -83 332
-331 584 -657 667 -107 27 -268 34 -370 16z m405 -40 c100 -34 174 -70 246
-117 61 -41 209 -186 209 -205 0 -7 3 -14 8 -16 16 -7 64 -89 96 -164 93 -222
91 -486 -6 -702 -64 -145 -200 -308 -307 -370 -25 -14 -48 -29 -51 -32 -3 -3
-23 -15 -45 -27 -174 -94 -425 -121 -630 -68 -79 20 -206 74 -225 95 -3 3 -21
15 -42 27 -75 44 -182 149 -237 233 -53 82 -79 135 -114 235 -30 87 -31 96
-32 255 0 154 8 217 35 285 47 119 78 179 115 230 104 139 234 246 365 300 36
15 74 31 85 36 56 26 157 37 300 35 133 -3 159 -6 230 -30z"/>
<path d="M903 1385 c-40 -17 -57 -48 -50 -91 3 -19 2 -34 -3 -34 -5 0 -10 28
-12 63 l-3 62 -46 3 c-51 3 -55 -1 -115 -113 -18 -32 -27 -40 -50 -40 -21 0
-28 4 -25 15 11 49 12 94 2 113 -11 21 -19 22 -117 22 l-106 0 -3 -44 c-2 -24
-11 -73 -21 -108 -20 -74 -13 -89 34 -72 22 8 33 19 37 41 5 22 16 34 41 44
33 14 53 38 41 51 -4 3 -18 6 -32 6 -14 0 -23 2 -20 6 11 10 85 29 79 20 -3
-5 -8 -26 -10 -47 -3 -20 -9 -52 -14 -70 -10 -38 -4 -62 16 -62 8 0 11 -6 8
-15 -4 -8 -2 -21 4 -28 7 -8 6 -30 -5 -72 -8 -33 -18 -80 -22 -105 l-6 -45
-63 1 c-35 1 -66 5 -70 8 -3 4 2 28 11 54 24 66 22 102 -8 135 -51 54 -65 32
-102 -158 -3 -16 -9 -34 -13 -40 -5 -5 -11 -27 -15 -47 -9 -48 2 -53 86 -38
35 7 81 13 101 15 21 2 42 6 48 10 5 3 20 -1 33 -10 43 -28 87 2 87 59 0 12 4
26 9 32 5 5 11 20 14 34 3 19 5 16 6 -11 1 -42 36 -98 71 -116 14 -7 44 -13
67 -13 23 0 44 -4 47 -8 9 -15 61 -1 77 21 8 12 24 49 34 82 15 45 20 54 23
36 2 -13 -1 -43 -7 -68 -13 -51 -9 -63 22 -63 33 0 44 11 65 60 19 46 27 49
92 41 9 -1 8 -18 -6 -71 -2 -8 1 -21 5 -29 8 -13 15 -13 49 -2 46 15 53 28 77
131 24 108 25 109 85 96 20 -4 18 -69 -5 -145 -20 -68 -16 -91 18 -91 35 0 75
42 82 86 3 22 10 49 16 62 5 13 9 31 9 40 0 27 13 40 44 46 23 4 27 2 23 -13
-8 -33 35 -93 81 -110 23 -8 42 -19 42 -23 0 -10 -57 -11 -62 0 -2 4 -15 17
-29 30 -32 28 -59 20 -59 -17 0 -91 160 -135 235 -65 27 25 35 80 14 101 -9 9
-5 18 16 36 33 28 38 76 12 105 -10 11 -41 24 -70 31 -43 10 -59 9 -92 -3 -22
-8 -44 -12 -49 -8 -5 3 -62 7 -125 10 -248 10 -254 8 -264 -54 -8 -49 -23 -64
-64 -64 -37 0 -38 5 -18 82 9 36 -11 44 -58 25 -27 -12 -36 -22 -41 -50 -9
-48 -27 -60 -97 -63 -74 -4 -97 -18 -73 -45 22 -24 10 -39 -31 -39 -40 0 -47
14 -30 64 16 45 38 63 85 71 57 10 99 35 100 58 0 4 -9 -2 -20 -13 -11 -11
-31 -20 -45 -20 -13 0 -43 -7 -66 -17 -32 -12 -46 -26 -60 -57 -33 -73 -21
-106 37 -106 23 0 38 7 48 22 21 29 20 35 -5 43 -32 10 -10 23 46 27 50 3 50
3 47 -25 -2 -16 -14 -52 -28 -82 -21 -43 -30 -52 -50 -52 -16 0 -23 4 -20 12
4 10 -3 11 -30 3 -46 -12 -86 -3 -115 28 -35 38 -34 118 3 166 39 51 90 73
165 70 34 -1 64 1 66 6 3 4 -24 8 -60 10 -80 3 -143 -24 -185 -82 -30 -41 -34
-42 -19 -3 7 17 5 32 -4 50 -12 24 -11 27 6 32 10 4 24 3 29 0 15 -9 60 22 60
41 0 9 -9 18 -20 21 -16 4 -19 11 -14 27 16 55 57 59 69 7 3 -16 13 -35 21
-41 19 -17 44 -5 44 20 0 21 0 21 29 -1 33 -24 81 -21 112 7 15 13 17 13 22
-1 8 -18 46 -20 52 -2 21 60 25 66 39 61 9 -3 16 -22 18 -42 4 -45 25 -52 59
-20 25 23 25 23 41 4 13 -18 18 -19 47 -6 24 10 35 10 44 1 21 -21 44 -12 59
27 l15 37 16 -37 c12 -29 22 -38 41 -38 19 0 27 8 36 36 l12 36 19 -31 c21
-35 25 -37 91 -46 l47 -6 21 42 c38 81 21 127 -37 103 -32 -14 -46 -44 -20
-44 8 0 7 -4 -3 -10 -24 -15 -30 -12 -30 18 0 25 30 71 48 73 48 5 68 20 59
43 -13 34 -126 16 -152 -24 -7 -12 -10 -9 -15 15 -4 24 -10 30 -30 30 -21 0
-28 -8 -42 -50 -13 -40 -18 -46 -23 -30 -17 52 -26 65 -43 65 -23 0 -52 -30
-52 -53 0 -9 -4 -17 -8 -17 -5 0 -7 13 -4 30 3 24 0 32 -22 41 -20 9 -29 10
-38 1 -8 -8 -14 -8 -22 3 -8 11 -19 13 -41 7 -23 -6 -33 -17 -43 -48 -18 -56
-45 -56 -40 0 3 38 1 41 -22 38 -14 -1 -32 -11 -41 -22 -14 -16 -18 -17 -23
-5 -4 11 -70 48 -80 45 0 -1 -15 -7 -33 -15z m312 -17 c-3 -13 -15 -58 -25
-101 -11 -48 -25 -84 -36 -92 -27 -19 -33 -11 -27 36 l6 40 -34 -3 c-28 -2
-35 -8 -42 -35 -8 -27 -33 -51 -43 -40 -2 2 1 20 7 41 6 21 8 47 6 57 -3 11
-2 19 3 19 4 0 11 16 14 35 4 20 16 39 27 46 26 14 34 6 20 -19 -16 -29 -14
-62 4 -63 8 -1 23 -2 32 -3 13 -1 20 10 26 42 6 30 15 46 30 52 34 14 40 12
32 -12z m285 13 c0 -9 -15 -72 -41 -173 -5 -21 -16 -38 -24 -38 -7 0 -26 26
-41 58 l-27 57 -13 -53 c-15 -65 -17 -67 -44 -52 -15 8 -19 17 -14 28 4 9 14
43 24 76 14 50 39 86 60 86 3 0 14 -30 24 -66 20 -69 31 -70 40 -3 7 52 24 89
41 89 8 0 15 -4 15 -9z m-1001 -11 c37 0 42 -2 31 -15 -7 -8 -27 -15 -46 -15
-23 0 -37 -6 -44 -19 -15 -28 -14 -29 28 -34 l37 -3 -42 -19 c-34 -14 -44 -24
-49 -50 -4 -23 -13 -34 -35 -42 -16 -6 -29 -9 -29 -6 0 3 9 36 19 72 24 81 28
112 17 130 -8 12 -2 13 30 8 21 -4 59 -7 83 -7z m91 -15 c11 -20 11 -33 -2
-79 -16 -53 -16 -54 6 -60 52 -14 60 -8 107 76 42 76 49 83 79 85 19 2 36 -1
39 -6 3 -5 6 -55 6 -112 0 -113 -15 -141 -34 -64 -11 43 -13 45 -46 45 -30 0
-37 -5 -49 -35 -15 -34 -29 -44 -40 -26 -6 9 -52 6 -102 -8 -18 -5 -35 -7 -37
-5 -2 3 4 41 15 87 10 45 21 92 23 105 7 29 18 28 35 -3z m407 4 c17 -15 17
-40 -1 -64 -12 -16 -16 -17 -30 -6 -9 7 -16 20 -16 28 0 13 3 13 15 3 12 -10
15 -10 15 3 0 22 -39 32 -56 15 -19 -19 -10 -39 29 -63 58 -37 40 -101 -30
-107 -32 -2 -57 12 -74 44 -17 32 1 41 26 13 23 -24 54 -33 68 -18 9 9 -22 43
-39 43 -8 0 -21 14 -30 31 -28 56 14 105 80 94 16 -3 35 -10 43 -16z m293 6
c9 -11 9 -22 1 -48 -13 -37 -20 -67 -28 -109 -6 -31 -27 -43 -43 -23 -8 9 -8
20 -2 32 5 10 13 43 17 73 11 83 28 107 55 75z m377 1 c-2 -5 -21 -14 -43 -20
-29 -9 -43 -20 -56 -46 -10 -19 -18 -45 -18 -57 0 -19 6 -23 30 -23 33 0 52
26 29 40 -17 11 -12 16 29 25 27 6 32 4 32 -13 0 -25 -29 -95 -44 -104 -16
-11 -28 -10 -21 2 4 6 -5 7 -24 4 -23 -5 -35 -1 -55 19 -66 66 3 187 105 183
21 0 38 -5 36 -10z m-654 -119 c-3 -5 -9 -3 -14 4 -4 7 -5 17 -2 22 3 5 9 3
14 -4 4 -7 5 -17 2 -22z m199 3 c-6 -42 -19 -46 -14 -4 2 19 7 34 11 34 4 0 6
-14 3 -30z m-307 -20 c3 -5 2 -10 -4 -10 -5 0 -13 5 -16 10 -3 6 -2 10 4 10 5
0 13 -4 16 -10z m-182 -87 c4 -2 3 -11 -4 -19 -8 -10 -35 -14 -95 -14 -46 0
-84 2 -84 4 0 30 15 35 93 35 45 0 85 -3 90 -6z m557 -54 c0 -6 -6 -25 -14
-42 -12 -28 -23 -63 -32 -103 -15 -76 -36 -124 -53 -124 -11 0 -21 -5 -23 -12
-2 -6 -11 -9 -20 -5 -15 5 -15 11 -3 56 15 58 12 61 -60 61 -43 0 -43 0 -60
-50 -13 -38 -23 -52 -41 -56 -14 -4 -27 -4 -29 -2 -3 3 4 31 15 63 16 46 17
61 8 73 -10 11 -9 17 4 26 9 7 20 29 23 50 6 31 14 41 42 53 20 8 37 13 39 11
2 -2 -4 -28 -12 -57 -9 -29 -14 -54 -12 -55 1 -2 24 -7 50 -10 45 -7 48 -6 62
23 9 16 16 41 16 54 0 28 15 43 50 50 44 8 50 7 50 -4z m478 -32 c18 -14 15
-52 -7 -78 -19 -23 -21 -23 -48 -9 -15 9 -29 26 -31 38 -4 28 9 28 27 0 12
-20 14 -20 23 -4 14 24 0 36 -48 43 -32 4 -41 1 -51 -16 -17 -27 -7 -49 31
-67 68 -33 77 -40 82 -61 13 -51 -22 -86 -96 -97 -35 -5 -51 -1 -87 19 -26 16
-45 35 -49 51 -10 41 9 48 39 14 28 -31 60 -44 98 -38 40 5 27 32 -29 59 -52
25 -82 61 -82 98 0 25 39 58 85 74 34 12 46 12 85 -1 25 -8 51 -19 58 -25z
m-1392 11 c29 -28 30 -48 4 -121 -11 -31 -20 -60 -20 -64 0 -8 56 -15 129 -16
l35 -1 19 99 c24 129 38 146 87 107 l22 -18 -30 -90 c-17 -49 -32 -100 -34
-114 -3 -28 -39 -40 -62 -21 -13 11 -80 5 -201 -18 -27 -5 -53 -6 -57 -2 -5 4
-2 25 6 46 8 22 19 59 25 83 14 55 32 124 37 140 5 17 13 15 40 -10z m1184 11
c0 -12 -25 -27 -55 -35 -46 -11 -51 -18 -71 -112 -19 -91 -46 -132 -85 -132
-23 0 -23 7 -5 62 20 61 38 156 32 167 -3 5 -22 12 -41 15 -30 6 -45 23 -31
37 7 7 256 5 256 -2z m106 -74 c-1 -20 -3 -22 -15 -11 -7 8 -10 19 -7 25 12
19 24 12 22 -14z"/>
<path d="M745 1310 c-31 -49 -31 -50 -1 -50 21 0 24 5 28 45 2 25 2 45 1 45
-2 0 -14 -18 -28 -40z"/>
<path d="M669 723 c-42 -53 -52 -103 -20 -103 11 0 23 5 26 10 4 7 13 6 26 -1
11 -6 27 -8 34 -5 17 6 -3 68 -32 97 -18 19 -20 19 -34 2z m48 -48 c16 -35 17
-45 7 -45 -8 0 -14 5 -14 10 0 14 -33 13 -48 -2 -6 -6 -14 -9 -17 -7 -8 9 29
89 41 89 5 0 19 -20 31 -45z"/>
<path d="M680 681 c0 -5 5 -13 10 -16 6 -3 10 -2 10 4 0 5 -4 13 -10 16 -5 3
-10 2 -10 -4z"/>
<path d="M784 733 c-25 -5 -37 -53 -23 -90 10 -27 23 -28 64 -4 39 23 45 63
13 85 -12 9 -25 15 -28 15 -3 -1 -15 -4 -26 -6z m57 -29 c16 -20 1 -48 -30
-52 -12 -2 -19 -8 -16 -13 4 -5 -1 -9 -9 -9 -12 0 -16 11 -16 45 0 43 1 45 29
45 16 0 34 -7 42 -16z"/>
<path d="M790 685 c0 -10 7 -15 18 -13 21 4 19 22 -2 26 -10 2 -16 -3 -16 -13z"/>
<path d="M886 725 c-3 -9 -6 -37 -6 -61 0 -49 8 -53 58 -28 59 29 49 90 -17
100 -20 3 -30 0 -35 -11z m78 -28 c9 -15 7 -21 -9 -33 -11 -8 -25 -12 -32 -10
-7 3 -13 -1 -13 -9 0 -8 -4 -15 -10 -15 -5 0 -10 21 -10 46 0 45 0 45 31 42
18 -2 37 -11 43 -21z"/>
<path d="M910 685 c0 -10 7 -15 18 -13 21 4 19 22 -2 26 -10 2 -16 -3 -16 -13z"/>
<path d="M1022 727 c-7 -8 -18 -33 -27 -56 -12 -35 -12 -43 0 -47 7 -3 23 -1
34 5 13 7 22 8 26 1 3 -5 15 -10 27 -10 17 0 19 4 13 28 -8 34 -37 84 -51 89
-6 2 -16 -2 -22 -10z m48 -49 c20 -42 19 -61 -2 -40 -15 15 -45 15 -50 1 -2
-7 -9 -10 -14 -8 -13 5 22 89 36 89 5 0 19 -19 30 -42z"/>
<path d="M1036 681 c-4 -7 -5 -15 -2 -18 9 -9 19 4 14 18 -4 11 -6 11 -12 0z"/>
<path d="M1145 733 c-11 -3 -23 -10 -27 -17 -11 -17 -10 -76 2 -76 6 0 10 18
10 40 0 35 3 40 23 40 35 0 45 -12 44 -53 -1 -42 -3 -43 -29 -20 -16 14 -18
14 -18 0 0 -8 -8 -17 -17 -19 -10 -2 3 -5 30 -5 l47 -1 0 45 c0 32 -5 50 -17
59 -10 7 -20 13 -23 13 -3 -1 -14 -4 -25 -6z"/>
<path d="M1242 728 c-7 -7 -12 -31 -12 -55 0 -37 4 -45 25 -55 18 -8 32 -8 49
0 20 9 23 17 22 54 -1 24 -6 49 -10 56 -9 15 -58 16 -74 0z m73 -18 c4 -6 -5
-10 -19 -10 -14 0 -26 -5 -26 -11 0 -6 9 -9 20 -6 11 3 20 1 20 -4 0 -5 -9 -9
-20 -9 -11 0 -20 -4 -20 -10 0 -5 11 -10 25 -10 14 0 25 -4 25 -10 0 -5 -16
-10 -35 -10 -35 0 -35 0 -35 45 0 43 1 45 29 45 17 0 33 -4 36 -10z"/>
<path d="M1353 723 c-5 -10 -8 -27 -7 -38 4 -68 2 -65 44 -65 33 0 40 4 40 19
0 10 -9 21 -20 24 -12 3 -20 14 -20 25 0 47 -22 67 -37 35z m27 -38 c0 -28 4
-35 20 -35 11 0 20 -4 20 -10 0 -5 -13 -10 -30 -10 -29 0 -30 2 -30 45 0 25 5
45 10 45 6 0 10 -16 10 -35z"/>
<path d="M1150 685 c0 -8 7 -15 15 -15 8 0 15 7 15 15 0 8 -7 15 -15 15 -8 0
-15 -7 -15 -15z"/>
</g>
</svg>
